# xmcd CD database file
#
# Track frame offsets:
#	150
#	15987
#	33192
#	47737
#	58595
#	77382
#
# Disc length: 1198 seconds
#
# Revision: 0
# Processed by: cddbd v1.5.2PL0 Copyright (c) Steve Scherf et al.
# Submitted via: CDex 1.70beta2
#
DISCID=3604ac06
DTITLE=Scooter Lee - Honky Tonk Twist
DYEAR=1900
DGENRE=Country
TTITLE0=Honky Tonk Twist
TTITLE1=Be-Bop-A-Lula
TTITLE2=I'll Two-Step Alone
TTITLE3=Well Oiled Love Machine
TTITLE4=Honky Tonk Twist (Dance Mix)
TTITLE5=Well Oiled Love Machine (Dance Mix)
EXTD=
EXTT0=
EXTT1=
EXTT2=
EXTT3=
EXTT4=
EXTT5=
PLAYORDER=
